<svg id="Layer_1" data-name="Layer 1" xmlns="http://www.w3.org/2000/svg" viewBox="0 0 255.12 255.12"><defs><style>.cls-1{fill:#717171;}.cls-2{fill:#818285;}.cls-3{fill:#bcbcbc;}.cls-4{fill:#fff;}</style></defs><title>nseye</title><path class="cls-1" d="M175.46,93.57a13.69,13.69,0,0,1,8.89,2.08l26.33-27.21a2.26,2.26,0,0,0-1.57-3.83L159.3,63.56a2.26,2.26,0,0,0-1.67.69L120.3,102.82a2.26,2.26,0,0,0,.06,3.2l26.32,25.34a2.26,2.26,0,0,0,3.19-.06L165.62,115a13.75,13.75,0,0,1,9.84-21.45Z"/><path class="cls-1" d="M234.43,108.92,207.85,82.76a1.9,1.9,0,0,0-2.69,0l-16.63,17A13.74,13.74,0,0,1,169.82,119l-27.47,28.13a1.9,1.9,0,0,0,1.31,3.22l51,1.18a1.9,1.9,0,0,0,1.4-.57l38.42-39.35A1.9,1.9,0,0,0,234.43,108.92Z"/><path class="cls-1" d="M53.12,83.68A13.75,13.75,0,0,1,63.25,70.42a1.73,1.73,0,0,0,1.28-1.64l.08-5.34a3.72,3.72,0,0,0-6.2-2.82L24.34,91.29A3.72,3.72,0,0,0,23.11,94l-.77,51.58A3.72,3.72,0,0,0,26,149.35l33.61.41a3.72,3.72,0,0,0,3.76-3.66l.71-47.58a1.73,1.73,0,0,0-1.24-1.68A13.76,13.76,0,0,1,53.12,83.68Z"/><path class="cls-1" d="M107.56,73.3l-27.65-.65a2.05,2.05,0,0,0-1.7,3.25A13.73,13.73,0,0,1,71.4,96.66,2.07,2.07,0,0,0,70,98.56l-1.17,60.79a4,4,0,0,0,6.7,3.07l33.63-30.16a4,4,0,0,0,1.34-2.92l1-51.95A4,4,0,0,0,107.56,73.3Z"/><path class="cls-1" d="M187,105.18a10.73,10.73,0,0,1-.85,6.67h0a10.24,10.24,0,0,1-8.25,5.81v-1.92a8.12,8.12,0,0,0,1.86-.43h0a8.4,8.4,0,0,0,3.83-2.84,8.63,8.63,0,0,0,1.51-3.2H183a7.08,7.08,0,0,1-.65,1.69c-3.31,5-11.8,2.77-11.8-3.75a6.47,6.47,0,1,1,12.92.41h1.89a8.77,8.77,0,0,0-.53-3.44l3.32-1.74a11.92,11.92,0,0,0-19.7-3.94l1.64,1a10,10,0,0,1,15.55,2.09l-1.67.88a8.59,8.59,0,0,0-1.23-1.5h0a8.2,8.2,0,0,0-12.34,1l-3.18-2a12.6,12.6,0,0,0-.5,13.72,12.13,12.13,0,0,0,7.48,5.58v-2a10.29,10.29,0,0,1-5.82-4.48,10.71,10.71,0,0,1-.53-10.23l1.6,1a8.67,8.67,0,0,0-.6,1.85h0a8.8,8.8,0,0,0,.36,4.81,8.42,8.42,0,0,0,6.87,5.49c0,2.35,0,1.48,0,3.83a11.94,11.94,0,0,0,10.73-5.1,12.35,12.35,0,0,0,1-1.62,12.67,12.67,0,0,0,1-8.57Z"/><path class="cls-2" d="M176.94,109.06l1.89,3.78,1.06-.55a5.69,5.69,0,0,0,2-2.06,6,6,0,0,0,.79-2.93v-.14h0a6.29,6.29,0,0,0-.05-.72h0v0h0a5.91,5.91,0,0,0-1.91-3.58l-.43-.38-.81,1.59.25.24a4.14,4.14,0,0,1,1.2,2.33h0a4.31,4.31,0,0,1,0,.64,4.26,4.26,0,0,1-.36,1.71,4.11,4.11,0,0,1-.69,1.07l-.46.34-1-2a2,2,0,0,0,.45-1.28,2,2,0,0,0-1.94-2h-.14L176,103.3h0l-.25-.49-.38-.77-.19-.38-.38.17a5.71,5.71,0,0,0-2.6,2.24,6,6,0,0,0-.9,3.19,6,6,0,0,0,.42,2.19,5.87,5.87,0,0,0,1.28,2l.4.41.91-1.53L174,110a4.13,4.13,0,0,1-.8-1.32,4.21,4.21,0,0,1,.21-3.41,4.05,4.05,0,0,1,1-1.23v0l0,0,.92,1.85a2,2,0,0,0-.35,1.15,2,2,0,0,0,1.92,2"/><polygon class="cls-3" points="49.36 203.46 49.36 171.87 50.04 171.87 71.07 196.09 71.07 171.87 74.19 171.87 74.19 203.46 73.48 203.46 52.62 179.54 52.62 203.46 49.36 203.46"/><path class="cls-3" d="M78.61,197.58,81.3,196q2.83,5.22,6.55,5.22a6.28,6.28,0,0,0,3-.74,5.24,5.24,0,0,0,2.13-2,5.15,5.15,0,0,0,.73-2.64,5.36,5.36,0,0,0-1.07-3.11,25.74,25.74,0,0,0-5.41-5.07,27.64,27.64,0,0,1-4.92-4.32,7.9,7.9,0,0,1-1.67-4.83,7.33,7.33,0,0,1,1-3.76,7,7,0,0,1,2.78-2.67,8,8,0,0,1,3.9-1,8.31,8.31,0,0,1,4.18,1.11,14.32,14.32,0,0,1,4.11,4.07l-2.58,2a12.39,12.39,0,0,0-3-3.11,5.24,5.24,0,0,0-2.74-.75,4.34,4.34,0,0,0-3.12,1.16,3.79,3.79,0,0,0-1.21,2.86,4.86,4.86,0,0,0,.43,2,7.36,7.36,0,0,0,1.57,2.1q.62.6,4.08,3.16A23,23,0,0,1,95.58,191a8.69,8.69,0,0,1,1.53,4.75,8.06,8.06,0,0,1-2.61,6,8.77,8.77,0,0,1-6.35,2.53,9.31,9.31,0,0,1-5.22-1.54A14.07,14.07,0,0,1,78.61,197.58Z"/><polygon class="cls-3" points="103.81 171.87 121.91 171.87 121.91 174.96 106.96 174.96 106.96 184.86 121.78 184.86 121.78 187.96 106.96 187.96 106.96 200.37 121.78 200.37 121.78 203.46 103.81 203.46 103.81 171.87"/><polygon class="cls-3" points="124.88 171.87 128.51 171.87 136.59 184.9 144.55 171.87 148.2 171.87 138.19 188.36 138.19 203.46 135.08 203.46 135.08 188.36 124.88 171.87"/><polygon class="cls-3" points="153.42 171.87 171.53 171.87 171.53 174.96 156.58 174.96 156.58 184.86 171.4 184.86 171.4 187.96 156.58 187.96 156.58 200.37 171.4 200.37 171.4 203.46 153.42 203.46 153.42 171.87"/><path class="cls-1" d="M77.06,82a10.74,10.74,0,0,1-.85,6.68h0A10.25,10.25,0,0,1,68,94.44V92.52a8.12,8.12,0,0,0,1.86-.43h0a8.4,8.4,0,0,0,3.83-2.84,8.66,8.66,0,0,0,1.51-3.2H73a7.09,7.09,0,0,1-.65,1.69c-3.31,5-11.8,2.77-11.8-3.75a6.47,6.47,0,1,1,12.92.41h1.89A8.77,8.77,0,0,0,74.85,81l3.32-1.74a11.92,11.92,0,0,0-19.7-3.94l1.64,1A10,10,0,0,1,75.67,78.4L74,79.27a8.59,8.59,0,0,0-1.23-1.5h0a8.2,8.2,0,0,0-12.34,1l-3.18-2a12.6,12.6,0,0,0-.5,13.72,12.13,12.13,0,0,0,7.48,5.58v-2a10.29,10.29,0,0,1-5.82-4.48,10.71,10.71,0,0,1-.53-10.23l1.6,1a8.67,8.67,0,0,0-.6,1.85h0A8.81,8.81,0,0,0,59.23,87a8.42,8.42,0,0,0,6.87,5.49c0,2.35,0,1.48,0,3.83a11.94,11.94,0,0,0,10.73-5.1,12.31,12.31,0,0,0,1-1.62,12.67,12.67,0,0,0,1-8.57Z"/><path class="cls-2" d="M67,85.83l1.89,3.78L70,89.06A5.69,5.69,0,0,0,72,87a6,6,0,0,0,.79-2.93v-.14h0a6.29,6.29,0,0,0-.05-.72h0v0h0a5.9,5.9,0,0,0-1.91-3.58l-.43-.38-.81,1.59.25.24A4.15,4.15,0,0,1,71,83.37h0A4.18,4.18,0,0,1,71,84a4.26,4.26,0,0,1-.36,1.71A4.11,4.11,0,0,1,70,86.8l-.46.34-1-2A2,2,0,0,0,69,83.83a2,2,0,0,0-1.94-2h-.13L66,80.07h0l-.25-.49-.38-.77-.19-.38-.38.17a5.72,5.72,0,0,0-2.6,2.24,6,6,0,0,0-.9,3.19,6,6,0,0,0,.42,2.19,5.86,5.86,0,0,0,1.28,2l.4.41.91-1.53-.23-.26a4.13,4.13,0,0,1-.8-1.32A4.19,4.19,0,0,1,63,84a4.24,4.24,0,0,1,.48-1.95,4.07,4.07,0,0,1,1-1.23v0l0,0,.92,1.85a2,2,0,0,0-.35,1.15,2,2,0,0,0,1.92,2"/><path class="cls-4" d="M186.15,124.17l.09.09a1.87,1.87,0,1,0-3-.61l.11-.05-.09-.09-3.38,3.21-1.88-2-.09.09.11.05a1.87,1.87,0,0,0-.35-2.06,1.86,1.86,0,0,0-1.31-.58h-.05a1.87,1.87,0,0,0-1.87,1.82v.05a1.87,1.87,0,0,0,1.87,1.87,1.87,1.87,0,0,0,.91-.23l-.06-.11-.09.09,4.69,4.94.09-.09-.11-.06a1.88,1.88,0,0,0-.22.84v0a1.87,1.87,0,1,0,1.92-1.87h0a1.86,1.86,0,0,0-.8.18l.05.11.09-.09-1.93-2,3.35-3.18-.09-.09-.06.11a1.87,1.87,0,0,0,2.22-.27l-.09-.09-.09-.09a1.62,1.62,0,0,1-1.92.23l-.08,0-3.6,3.42,2.17,2.28.08,0a1.61,1.61,0,0,1,.69-.16h0a1.62,1.62,0,1,1-1.66,1.62v0a1.63,1.63,0,0,1,.19-.72l0-.08-4.82-5.07-.08,0a1.62,1.62,0,0,1-2-.3,1.61,1.61,0,0,1-.45-1.11v0a1.62,1.62,0,0,1,1.62-1.58h0a1.62,1.62,0,0,1,1.58,1.62,1.63,1.63,0,0,1-.15.67l0,.08,2.11,2.23,3.62-3.44,0-.08a1.63,1.63,0,0,1-.14-.65,1.62,1.62,0,1,1,2.73,1.18Z"/><path class="cls-4" d="M155.83,145.77l.09-.09a1.88,1.88,0,0,0-2.2-.38l.06.11.09-.09L150.69,142l-8.23,7.82.1.09c.15.14.29.3.44.46l0,0h0l.4.11.07,0,7.11-6.75L153,146.2l.09-.09-.11-.06a1.85,1.85,0,0,0-.24.88h0V147a1.87,1.87,0,1,0,3.23-1.29l-.09.09-.09.09a1.62,1.62,0,1,1-2.8,1.12v0h0a1.6,1.6,0,0,1,.21-.76l0-.08-2.56-2.69-7.24,6.87.09.09,0-.12-.42-.11,0,.12.09-.08c-.14-.16-.29-.32-.46-.48l-.08.09.09.09,8-7.55,3.08,3.24.08,0a1.63,1.63,0,0,1,1.9.33Z"/><path class="cls-4" d="M161.92,150.9V151a8.44,8.44,0,0,1,1,.07l.14,0,0-1.63,2.37-2.25-.09-.09-.06.11a1.87,1.87,0,1,0-.95-1.67v.05a1.85,1.85,0,0,0,.2.84l.11-.06-.09-.09-2.75,2.61-.05,2.09h.13v-.12H162l0-1.86,2.74-2.6,0-.08a1.6,1.6,0,0,1-.17-.73v0a1.62,1.62,0,1,1,1.62,1.66,1.62,1.62,0,0,1-.8-.21l-.08,0-2.51,2.38,0,1.59h.12l0-.12a8.69,8.69,0,0,0-1-.07v.13h0Z"/><path class="cls-4" d="M194,124.92l-.09.09,7.82,8.24-.91,5,.12,0,0-.12a1.87,1.87,0,1,0,1.73.54,1.84,1.84,0,0,0-.64-.44l0,.12.12,0,1-5.54-8.26-8.7-.09.09.11.06a1.86,1.86,0,0,0,.24-.88v0a1.87,1.87,0,0,0-1.82-1.87h-.05A1.87,1.87,0,1,0,194,125l-.06-.11-.09.09.09-.09-.06-.11a1.62,1.62,0,0,1-1.84-2.62,1.6,1.6,0,0,1,1.11-.45h0a1.62,1.62,0,0,1,1.58,1.62v0a1.61,1.61,0,0,1-.21.76l0,.08,8.24,8.68-1,5.52.09,0a1.59,1.59,0,0,1,.56.38,1.63,1.63,0,1,1-1.49-.47l.08,0,.95-5.2-8-8.4-.08,0Z"/><path class="cls-4" d="M192.93,129.84l-.09.09,3.37,3.55-1.43,17.65L195,151l.45-.33a6.74,6.74,0,0,1,.61-.41l.05,0L197.51,133l-3.76-4-.09.09.11.06a1.87,1.87,0,0,0-2.91-2.28l.09.09-.06-.11h0a1.87,1.87,0,0,0,2.13,3l-.06-.11-.09.09.09-.09-.06-.11a1.62,1.62,0,0,1-1.85-2.62l-.09-.09.06.11h0a1.62,1.62,0,0,1,2.52,2l0,.08,3.75,3.95-1.38,17H196l-.06-.11a7,7,0,0,0-.63.43l-.45.33.07.1h.12l1.42-17.48-3.52-3.7-.08,0Z"/><path class="cls-4" d="M191.39,150.31l.09.09a1.86,1.86,0,0,0,.58-1.31v0a1.86,1.86,0,0,0-.91-1.6l-.06.11h.12l.86-11h-.12l0,.12a1.87,1.87,0,1,0-1.69-3.18h0l.09.09-.09-.09a1.87,1.87,0,0,0,.61,3.1l0-.12h-.12l-.26,3.31-1.88,0v.12l.12,0a1.87,1.87,0,0,0-3.09-.86l0,0v.05h.13l-.09-.09a1.87,1.87,0,1,0,3.06,1.94l-.12,0V141l1.82,0-.49,6.22h.12v-.12a1.85,1.85,0,0,0-1.18.51l0,0v.05H189l-.09-.09a1.87,1.87,0,0,0,2.58,2.71l-.09-.09-.09-.09a1.62,1.62,0,0,1-2.23-2.35l0,0v-.05H189l.09.09a1.6,1.6,0,0,1,1-.44h.11l.52-6.59-2.17-.06,0,.09a1.62,1.62,0,1,1-2.65-1.68l0,0v-.05h-.12l.09.09a1.62,1.62,0,0,1,2.68.75l0,.09,2.21.06.29-3.64-.09,0a1.6,1.6,0,0,1-.59-.39,1.62,1.62,0,0,1,.06-2.29h0l-.09-.09.09.09a1.62,1.62,0,1,1,1.46,2.76l-.09,0L191,147.61l.07,0a1.61,1.61,0,0,1,.79,1.39v0a1.61,1.61,0,0,1-.5,1.13Z"/><path class="cls-4" d="M179,151.19v.12h.56l-16.41-17.28-.09.09.11.06a1.86,1.86,0,0,0,.25-.89v0a1.87,1.87,0,0,0-1.82-1.87h-.05a1.86,1.86,0,0,0-1.29.51l.09.09v-.12h-.05l0,0a1.87,1.87,0,0,0,2.14,3l-.06-.11-.09.09,15.65,16.48h.06a8.52,8.52,0,0,1,1-.07v-.25a8.76,8.76,0,0,0-1.08.07l0,.12.09-.09-15.67-16.5-.08,0a1.62,1.62,0,0,1-1.85-2.62l-.09-.09v.13h.05l0,0a1.61,1.61,0,0,1,1.11-.45h0a1.62,1.62,0,0,1,1.58,1.62v0a1.61,1.61,0,0,1-.22.77l0,.08,16.26,17.12.09-.09v-.12H179Z"/><path class="cls-4" d="M183,136.92l.09-.09a1.8,1.8,0,0,0-2.1-.37l.06.11.09-.09-13.86-14.6-.09.09a6.43,6.43,0,0,1-.75.62l-.12.08,13.92,14.66.09-.09-.11-.06a1.8,1.8,0,0,0-.23.83h0v0a1.8,1.8,0,0,0,1.75,1.8h0a1.79,1.79,0,0,0,1.3-3l-.09.09-.09.09a1.54,1.54,0,0,1-1.12,2.61h0a1.55,1.55,0,0,1-1.5-1.55v0h0a1.55,1.55,0,0,1,.2-.72l0-.08-13.89-14.62-.09.09.07.1a6.68,6.68,0,0,0,.78-.64l-.09-.09-.09.09L181,136.72l.08,0a1.55,1.55,0,0,1,1.8.32Z"/><path class="cls-4" d="M215.43,120.95v.12h.05a1.85,1.85,0,0,0,.84-.2l-.06-.11-.09.09,3.25,3.42,1.69.12,0,0,1.21-.93.27-.2L220,123,217.08,120l-.09.09.11.06a1.87,1.87,0,1,0-3.5-1v0a1.87,1.87,0,0,0,1.82,1.87v-.25a1.62,1.62,0,0,1-1.58-1.62v0a1.62,1.62,0,1,1,3,.84l0,.08,3,3.2,2.39.17v-.12l-.08-.1-1.21.93.08.1v-.12l-1.54-.11-3.25-3.42-.08,0a1.6,1.6,0,0,1-.73.17h0Z"/><path class="cls-4" d="M205.57,89.82l-.09.09a1.87,1.87,0,0,0,2.2.38l-.06-.11-.09.09,7.82,8.24-.91,5,.12,0,0-.12a1.86,1.86,0,0,0-.92.47l0,0V104h.13l-.09-.09a1.87,1.87,0,0,0,1.24,3.23h.05a1.87,1.87,0,0,0,.71-3.6l0,.12.12,0,1-5.54-8.26-8.7-.09.09.11.06a1.87,1.87,0,1,0-3,.36l.09-.09.09-.09a1.62,1.62,0,1,1,2.58-.31l0,.08,8.24,8.68-1,5.51.09,0a1.62,1.62,0,0,1,.5,2.67,1.6,1.6,0,0,1-1.11.45h0a1.62,1.62,0,0,1-1.07-2.8l0,0V104h-.12l.09.09a1.61,1.61,0,0,1,.8-.41l.08,0,.95-5.2-8-8.4-.08,0a1.62,1.62,0,0,1-1.9-.33Z"/><path class="cls-4" d="M206.55,95.1l-.09.09,3.37,3.55-1.72,21.18,8.16,8.59.09-.08.75-.68.09-.09-7.79-8.2,1.72-21.18-3.76-4-.09.09.11.06a1.87,1.87,0,0,0-2.91-2.28l0,0v.05h.13l-.09-.09a1.87,1.87,0,0,0,2.13,3l-.06-.11-.09.09.09-.09L206.5,95a1.62,1.62,0,0,1-1.84-2.62l0,0v-.05h-.12l.09.09a1.62,1.62,0,0,1,2.52,2l0,.08,3.75,3.95-1.72,21.18,7.78,8.19.09-.09-.08-.09-.75.68.09.09.09-.09-8-8.42,1.72-21.18-3.52-3.7-.08,0Z"/><path class="cls-4" d="M230.82,105.64l-.09-.09-10.37,9.85L218,113l-.09.09.11.06a1.87,1.87,0,0,0,.24-.88v0a1.87,1.87,0,1,0-1,1.67l-.06-.11-.09.09,3.19,3.36,11.36-10.79-.08-.09-.68-.75-.09-.1-.09.09.09.09-.09.08.68.75.09-.09-.09-.09-11.09,10.53-3.08-3.24-.08,0a1.62,1.62,0,1,1,.89-1.45v0a1.62,1.62,0,0,1-.21.76l0,.08,2.56,2.69,10.55-10-.09-.09-.09.08Z"/><path class="cls-4" d="M189.75,113l-.1-.07a6.73,6.73,0,0,1-.63.78l-.08.09,20.76,21.86.09-.11.64-.79.07-.09-20.76-21.86-.09.13.1.07-.09.09,20.58,21.67.09-.09-.1-.08-.64.8.1.08.09-.09L189.2,113.7l-.09.09.09.08a7,7,0,0,0,.65-.81l-.1-.07-.09.09Z"/><path class="cls-4" d="M167.82,90.3l-.09-.09a1.87,1.87,0,1,0,3,.61l-.11.05.09.09,3.38-3.21,1.88,2,.09-.09-.11-.05a1.87,1.87,0,0,0,1.65,2.64h0a1.87,1.87,0,0,0,1.87-1.82v-.05a1.87,1.87,0,0,0-2.77-1.63l.06.11.09-.09-4.69-4.94-.09.09.11.06a1.88,1.88,0,0,0,.22-.84h0v0a1.87,1.87,0,1,0-1.92,1.87h0a1.86,1.86,0,0,0,.8-.18l-.05-.11-.09.09,1.93,2L169.8,90l.09.09.06-.11a1.87,1.87,0,0,0-2.22.27l.09.09.09.09a1.62,1.62,0,0,1,1.92-.23l.08,0,3.6-3.42-2.17-2.28-.08,0a1.61,1.61,0,0,1-.69.16h0a1.62,1.62,0,1,1,1.66-1.62v0h0a1.63,1.63,0,0,1-.19.72l0,.08L176.77,89l.08,0a1.62,1.62,0,0,1,2,.3,1.61,1.61,0,0,1,.45,1.11v0A1.62,1.62,0,0,1,177.64,92h0a1.62,1.62,0,0,1-1.43-2.29l0-.08-2.11-2.23-3.62,3.44,0,.08a1.63,1.63,0,0,1,.14.65,1.62,1.62,0,1,1-2.73-1.18Z"/><path class="cls-4" d="M209.58,64.95l-.09-.09-6.17,5.86L201,68.28l-.09.09.11.06a1.85,1.85,0,0,0,.24-.88v0a1.87,1.87,0,1,0-1,1.67l-.06-.11-.09.09,3.19,3.36,7.44-7.06-.17-.08a6.37,6.37,0,0,1-.9-.52l-.08-.06-.07.07.09.09-.07.1a6.61,6.61,0,0,0,.93.54l.05-.11-.09-.09-7.12,6.76-3.08-3.24-.08,0A1.62,1.62,0,1,1,201,67.5v0a1.6,1.6,0,0,1-.21.76l0,.08,2.56,2.69,6.35-6-.09-.09-.07.1Z"/><path class="cls-4" d="M160,89.56l.09-.09-7.82-8.24.91-5-.12,0,0,.12a1.88,1.88,0,1,0-1.08-.1l0-.12-.12,0-1,5.54,8.26,8.7.09-.09-.11-.06a1.86,1.86,0,0,0-.24.88v0A1.87,1.87,0,0,0,160.71,93h0a1.87,1.87,0,1,0-.84-3.54l.06.11.09-.09-.09.09.06.11a1.62,1.62,0,1,1,.73,3.07h0a1.62,1.62,0,0,1-1.58-1.62v0a1.61,1.61,0,0,1,.21-.76l0-.08-8.24-8.68,1-5.51-.09,0a1.63,1.63,0,1,1,.94.09l-.08,0-.95,5.2,8,8.4.08,0Z"/><path class="cls-4" d="M161,84.63l.09-.09L157.75,81l1.43-17.65-.22.16-.45.33a6.92,6.92,0,0,1-.61.41l-.05,0-1.39,17.16,3.76,4,.09-.09-.11-.06a1.87,1.87,0,0,0,2.91,2.28l-.09-.09.06.11h0a1.87,1.87,0,0,0-2.13-3l.06.11.09-.09-.09.09.06.11a1.62,1.62,0,0,1,1.85,2.62l.09.09-.06-.11h0a1.62,1.62,0,0,1-2.52-2l0-.08-3.75-3.95,1.38-17H158l.06.11a7.18,7.18,0,0,0,.63-.43l.45-.33-.07-.1h-.12L157.5,81.08l3.52,3.7.08,0Z"/><path class="cls-4" d="M187.64,83.7l.09-.09L171,66l-.09.09.11.06a1.78,1.78,0,0,0,.23-.83v0a1.79,1.79,0,0,0-1.75-1.79h0a1.79,1.79,0,1,0,0,3.59,1.8,1.8,0,0,0,.79-.18l-.06-.11-.09.09,16.77,17.66.09-.09-.11-.06a1.86,1.86,0,0,0-.25.89h0v.05a1.87,1.87,0,0,0,1.82,1.87h.05a1.86,1.86,0,0,0,1.29-.51l0,0v-.05h-.12l.09.09a1.87,1.87,0,0,0-2.14-3l.06.11.09-.09-.09.09.06.11a1.62,1.62,0,0,1,1.85,2.62l0,0v.05h.13l-.09-.09a1.61,1.61,0,0,1-1.12.45h0a1.62,1.62,0,0,1-1.58-1.62v0h0a1.61,1.61,0,0,1,.22-.77l0-.08-16.9-17.79-.08,0a1.54,1.54,0,0,1-1.75-2.51,1.53,1.53,0,0,1,1.06-.42h0a1.54,1.54,0,0,1,1.5,1.54v0a1.53,1.53,0,0,1-.2.71l0,.08,16.9,17.79.08,0Z"/><path class="cls-4" d="M193.69,80l.09-.09a1.87,1.87,0,0,0-2.21-.38l.06.11.09-.09L176.89,63.94h-.06l-.55,0c-.28,0-.54,0-.81,0l-.33,0,15.69,16.52.09-.09-.11-.06a1.86,1.86,0,0,0-.25.89v.05a1.87,1.87,0,0,0,1.82,1.87h.05a1.86,1.86,0,0,0,1.29-.51l-.09-.09.06.11h0a1.87,1.87,0,0,0,.07-2.64l-.09.09-.09.09a1.62,1.62,0,0,1-.06,2.29l.09.09-.06-.11h0a1.61,1.61,0,0,1-1.12.45h0a1.62,1.62,0,0,1-1.58-1.62v0a1.61,1.61,0,0,1,.22-.77l0-.08L175.55,64l-.09.09v.12c.27,0,.54,0,.83,0l.57,0v-.12l-.09.09L191.61,79.8l.08,0a1.62,1.62,0,0,1,1.91.33Z"/><path class="cls-4" d="M138.54,93.53V93.4h-.05a1.85,1.85,0,0,0-.84.2l.06.11.09-.09-3.25-3.42-1.69-.12,0,0-1.21.93-.27.2,2.62.19,2.91,3.07.09-.09-.11-.06a1.87,1.87,0,1,0,3.5,1h0v0a1.87,1.87,0,0,0-1.82-1.87v.25a1.62,1.62,0,0,1,1.58,1.62v0h0a1.62,1.62,0,1,1-3-.84l0-.08-3-3.2L131.7,91v.12l.08.1,1.21-.93-.08-.1v.12l1.54.11,3.25,3.42.08,0a1.6,1.6,0,0,1,.73-.17h0Z"/><path class="cls-4" d="M148.39,124.65l.09-.09a1.87,1.87,0,0,0-2.2-.38l.06.11.09-.09L138.61,116l.91-5-.12,0,0,.12a1.86,1.86,0,0,0,.92-.47l0,0v-.05h-.12l.09.09a1.87,1.87,0,0,0-1.24-3.23H139a1.87,1.87,0,0,0-.71,3.6l0-.12-.12,0-1,5.54,8.26,8.7.09-.09-.11-.06a1.87,1.87,0,0,0,2.91,2.28l0,0v-.05h-.12l.09.09a1.87,1.87,0,0,0,.07-2.64l-.09.09-.09.09a1.62,1.62,0,0,1-.06,2.29l0,0v.05h.13l-.09-.09a1.62,1.62,0,0,1-2.53-2l0-.08-8.24-8.68,1-5.52-.09,0a1.62,1.62,0,0,1,.62-3.12h0a1.62,1.62,0,0,1,1.07,2.8l0,0v.05h.13l-.09-.09a1.61,1.61,0,0,1-.8.41l-.08,0-.95,5.2,8,8.4.08,0a1.62,1.62,0,0,1,1.9.33Z"/><path class="cls-4" d="M147.41,119.37l.09-.09-3.37-3.55,1.72-21.18L137.68,86l-.09.08-.75.68-.09.09,7.79,8.2-1.72,21.18,3.76,4,.09-.09-.11-.06a1.87,1.87,0,0,0,2.91,2.28l0,0v-.05h-.12l.09.09a1.87,1.87,0,0,0-2.13-3l.06.11.09-.09-.09.09.06.11a1.62,1.62,0,0,1,1.84,2.62l0,0v.05h.13l-.09-.09a1.62,1.62,0,0,1-2.52-2l0-.08-3.75-3.95,1.72-21.18L137,86.72l-.09.09.08.09.75-.68-.09-.09-.09.09,8,8.42-1.72,21.18,3.52,3.7.08,0Z"/><path class="cls-4" d="M148.95,98.9l-.09-.09a1.86,1.86,0,0,0-.58,1.31v0a1.86,1.86,0,0,0,.91,1.6l.06-.11h-.12l-.86,11h.12l0-.12a1.87,1.87,0,1,0,1.69,3.18l0,0v-.05H150l.09.09a1.87,1.87,0,0,0-.61-3.1l0,.12h.12l.26-3.31,1.89,0v-.12l-.12,0a1.87,1.87,0,0,0,3.09.86l-.09-.09.06.11h0a1.87,1.87,0,1,0-3.06-1.94l.12,0v-.12l-1.82,0,.49-6.22h-.12V102a1.85,1.85,0,0,0,1.18-.51l-.09-.09.06.11h0a1.87,1.87,0,0,0-2.58-2.71l.09.09L149,99a1.62,1.62,0,0,1,2.23,2.35l.09.09-.06-.11h0a1.6,1.6,0,0,1-1,.44h-.11l-.52,6.59,2.17.06,0-.09a1.62,1.62,0,1,1,2.65,1.68l.09.09-.06-.11h0a1.62,1.62,0,0,1-2.68-.75l0-.09-2.22-.06-.29,3.64.09,0a1.62,1.62,0,0,1,.53,2.68l0,0v.05H150l-.09-.09a1.62,1.62,0,1,1-1.46-2.76l.09,0,.88-11.12-.07,0a1.61,1.61,0,0,1-.79-1.39v0A1.61,1.61,0,0,1,149,99Z"/><path class="cls-4" d="M123.15,108.83l.09.09,10.37-9.85,2.32,2.44.09-.09-.11-.06a1.87,1.87,0,0,0-.24.88v0a1.87,1.87,0,1,0,1-1.67l.06.11.09-.09-3.19-3.36-11.36,10.79.08.09.68.75.09.1.09-.09-.09-.09.09-.08-.68-.75-.09.09.09.09,11.09-10.53,3.08,3.24.08,0a1.62,1.62,0,1,1-.89,1.45v0a1.62,1.62,0,0,1,.21-.76l0-.08-2.56-2.69-10.55,10,.09.09.09-.08Z"/><path class="cls-4" d="M195.73,72l.09-.09-.5-.53.19-7.51-.17.05a7.32,7.32,0,0,1-1,.23l-.1,0-.2,7.69.86.91.09-.09-.11-.06a1.87,1.87,0,0,0,1.58,2.8h.05a1.86,1.86,0,0,0,1.29-.51l0,0V74.8h-.12l.09.09a1.87,1.87,0,0,0-2.13-3l.06.11.09-.09-.09.09.06.11a1.62,1.62,0,0,1,1.84,2.62l0,0v.05h.13l-.09-.09a1.61,1.61,0,0,1-1.11.45h0a1.62,1.62,0,0,1-1.37-2.42l0-.08-.85-.9.19-7.49h-.12l0,.12a7.56,7.56,0,0,0,1-.24l0-.12h-.12l-.19,7.43.57.6.06.07.08,0Z"/><path class="cls-4" d="M161.81,106.54l-.11-.07a1.85,1.85,0,0,0-.3,1h0v.05a1.87,1.87,0,0,0,1.82,1.87h.18l0-.13c0-.27-.07-.54-.08-.81h0a8.5,8.5,0,0,1-.32-2.3v-.42l-.16,0a1.75,1.75,0,0,0-.31.08l0,.11.09-.09-21.84-23-.09.1-.7.73-.08.09,21.76,22.91.09-.09-.11-.07.11.07.09-.09L140.23,83.62l-.09.09.09.09.7-.73-.09-.09-.09.09,21.8,23,.08,0a1.65,1.65,0,0,1,.27-.07l0-.12h-.12v.27a8.75,8.75,0,0,0,.33,2.37l.12,0h-.12c0,.28,0,.56.08.83l.12,0v-.12h0v0a1.62,1.62,0,0,1-1.58-1.62v0h0a1.6,1.6,0,0,1,.26-.83l.05-.08-.07-.07Z"/><path class="cls-4" d="M30,97.61v-.12a1.87,1.87,0,0,0-1.87,1.87,1.85,1.85,0,0,0,.1.61l.12,0-.07-.1-5.54,4v.2h0c0,1.5-.14,3-.25,4.48v0a7.67,7.67,0,0,1,.15,1.58,16.3,16.3,0,0,1-.18,2.17l.25,0,.09-.67,0-.15v0h0l-.1,0,.1,0h0l-.1,0,.1,0-.11,0,.1.06v0l-.11,0,.1.06-.11-.06v.12c.09,0,.1-.05.11-.06l-.11-.06v0l-.1.08.1,0v-.12l-.1.08.09-.08h-.12l0,.07.09-.08h-.12c0,.13-.11.94-.16,1.35h0v.31l4.71,5.16v4.23h.13l0-.12a1.86,1.86,0,1,0,1.08,0l0,.12h.12v-4.72l-5-5.44v-7.47l5.59-4-.07-.1-.08.1A1.87,1.87,0,1,0,30,97.49v.25A1.62,1.62,0,0,1,30,101a1.61,1.61,0,0,1-1-.33l-.07-.06-5.77,4.16v7.69l5,5.44v4.71l.09,0a1.62,1.62,0,1,1-.94,0l.09,0v-4.42L22.72,113v-.2H22.6l.12,0,.1-.84c0-.29.06-.5.06-.55v0l0,0-.1,0c-.09,0-.1.05-.11.06l0,0c0,.05,0,.28-.12.87l.25,0a16.55,16.55,0,0,0,.18-2.21,7.92,7.92,0,0,0-.16-1.63l-.12,0h.12c.11-1.49.23-3,.25-4.5h0v-.06l5.5-4,0-.09a1.6,1.6,0,0,1-.09-.53A1.62,1.62,0,0,1,30,97.74Z"/><path class="cls-4" d="M25.9,94.94v-.12a1.87,1.87,0,0,0-1.78,1.29l.12,0V96H23.08v.13c0,.1,0,.2,0,.29v.06h0v.86h1.14v-.12l-.12,0a1.87,1.87,0,1,0,1.77-2.46v.25a1.62,1.62,0,1,1-1.54,2.13l0-.09h-1v-.6h0v-.07c0-.11,0-.21,0-.3h-.12v.12h1.12l0-.09a1.62,1.62,0,0,1,1.54-1.12Z"/><path class="cls-4" d="M55.21,104.37h.12V99.66l-5-5.44V86.75l2.94-2.12v-.08a8.38,8.38,0,0,1-.12-1.14v-.23l-4.06,2.93v8.6l5,5.44v4.23h.13l0-.12A1.87,1.87,0,1,0,56.58,106h0a1.87,1.87,0,0,0-1.33-1.79l0,.12h0l0,.12A1.62,1.62,0,0,1,56.33,106h0a1.62,1.62,0,0,1-1.62,1.62,1.62,1.62,0,0,1-.47-3.17l.09,0V100l-5-5.44V86.24l3.77-2.72-.07-.1h-.12a8.62,8.62,0,0,0,.12,1.17l.12,0-.07-.1-3,2.15v7.69l5,5.44v4.71l.09,0Z"/><path class="cls-4" d="M37,114.29v.13h0a1.87,1.87,0,0,0,1.79-1.33l-.12,0v.13H50.38v-11.9l-7.56-6.62V90.11h-.12l0,.12a1.87,1.87,0,1,0-1.08,0l0-.12h-.12v5.11l7.56,6.62v10.07H38.66V112l.12,0A1.87,1.87,0,1,0,37,114.41v-.25a1.62,1.62,0,0,1,0-3.24,1.62,1.62,0,0,1,1.55,1.15l0,.09h10.8V101.73L41.8,95.11V90l-.09,0a1.62,1.62,0,0,1,.47-3.17A1.62,1.62,0,0,1,42.65,90l-.09,0v4.75l7.56,6.62v11.54H38.56l0,.09A1.62,1.62,0,0,1,37,114.16h0Z"/><path class="cls-4" d="M33.05,135.91h.12a1.87,1.87,0,0,0-1.33-1.79l0,.12h.13V122.88l4.1-3-.07-.1-.07.11a1.86,1.86,0,0,0,1,.29h0a1.88,1.88,0,1,0-1.71-1.11l.11-.05-.07-.1-4.55,3.32v12h.13l0-.12a1.87,1.87,0,1,0,2.41,1.79h-.25a1.62,1.62,0,1,1-2.09-1.55l.09,0v-12l4.53-3.31,0-.09a1.6,1.6,0,0,1-.14-.66,1.62,1.62,0,1,1,1.62,1.62h0a1.61,1.61,0,0,1-.86-.25l-.07,0-4.27,3.12v11.58l.09,0a1.62,1.62,0,0,1,1.15,1.55Z"/><path class="cls-4" d="M60.41,110.52h.12V95.86l-.78-.81h0a6.54,6.54,0,0,1-3.93-3.25l-.08-.15-.12.13a1.87,1.87,0,0,0,2.21,2.94l-.06-.11-.09.09,1.62,1.68V110L43.44,124.19v5.46h.13l0-.12a1.87,1.87,0,1,0,1.08,0l0,.12h.12v-4.9l15.83-14.18v-.06h-.12l-.08-.09L44.46,124.65v5.1l.09,0a1.62,1.62,0,1,1-.94,0l.09,0v-5.44l15.83-14.18V96.27l-1.75-1.82-.08,0a1.61,1.61,0,0,1-.74.18,1.62,1.62,0,0,1-1.18-2.73l-.09-.09-.11.06a6.79,6.79,0,0,0,4.08,3.37l0-.12-.09.09.69.71v14.56h.13l-.08-.09Z"/><path class="cls-4" d="M59.79,115.88v-.12a1.87,1.87,0,0,0-1.8,2.37l.12,0L58,118l-8.17,7.35.08.09.06-.11a1.87,1.87,0,1,0-1,3.47h0a1.87,1.87,0,0,0,1.87-1.87,1.85,1.85,0,0,0-.18-.79l-.11.05.08.09,2.47-2.22,1.33,1.33.09-.09-.11-.06a1.88,1.88,0,0,0-.22.88h0A1.87,1.87,0,0,0,56.13,128h0a1.87,1.87,0,1,0-.88-3.52l.06.11.09-.09-1.29-1.29L58.74,119l-.08-.09-.08.1a1.86,1.86,0,0,0,1.21.45h0a1.87,1.87,0,0,0,0-3.74V116a1.62,1.62,0,0,1,0,3.24h0a1.61,1.61,0,0,1-1-.39l-.08-.07-4.91,4.42,1.54,1.54.08,0a1.61,1.61,0,0,1,.76-.19,1.62,1.62,0,0,1,0,3.24h0a1.62,1.62,0,0,1-1.62-1.62h0a1.63,1.63,0,0,1,.19-.77l0-.08-1.57-1.57-2.71,2.44,0,.08a1.6,1.6,0,0,1,.15.69A1.62,1.62,0,0,1,49,128.55h0a1.62,1.62,0,1,1,.84-3l.08,0,8.29-7.46,0-.07A1.62,1.62,0,0,1,59.79,116Z"/><path class="cls-4" d="M47.38,74v-.12a1.87,1.87,0,0,0-1.71,2.63l.11-.05-.08-.09-9.9,8.56H32.4l0,.06a6.79,6.79,0,0,1-.81,1l-.21.21h4.92l10.26-8.87-.08-.09-.07.11a1.87,1.87,0,1,0,1-3.45v.25a1.62,1.62,0,0,1,0,3.24,1.61,1.61,0,0,1-.87-.25l-.08,0L36.18,85.91H31.65V86l.09.09a7,7,0,0,0,.84-1l-.1-.07v.12H35.9l10-8.68,0-.08a1.62,1.62,0,0,1,1.48-2.28Z"/><path class="cls-4" d="M36.61,141.08h-.12v8.64h.13c.21,0,.41,0,.62,0l.36,0h.13v-8.63H37.6l0,.12a1.8,1.8,0,0,0,.74-.45,1.78,1.78,0,0,0,.52-1.27h0a1.79,1.79,0,0,0-1.79-1.79,1.8,1.8,0,0,0-.53,3.51l0-.12h0l0-.12a1.55,1.55,0,0,1,.46-3,1.54,1.54,0,0,1,1.54,1.54h0a1.53,1.53,0,0,1-.45,1.09,1.55,1.55,0,0,1-.63.38l-.09,0v8.59h.13v-.12l-.37,0c-.22,0-.43,0-.64,0v.12h.12V141l-.09,0Z"/><path class="cls-4" d="M42.3,140.89h-.12v8.7h.14a8.74,8.74,0,0,1,.9,0v0h.21v-8.64h-.12l0,.12a1.8,1.8,0,1,0-1.07,0l0-.12h0l0-.12a1.55,1.55,0,0,1,.46-3,1.54,1.54,0,0,1,1.09,2.64,1.55,1.55,0,0,1-.63.38l-.09,0v8.6h.13v-.12h-.09a9,9,0,0,0-.92,0v.12h.12V140.8l-.09,0Z"/><path class="cls-4" d="M103.34,124.73v.12a1.87,1.87,0,0,0,1.87-1.87,1.85,1.85,0,0,0-.1-.61l-.12,0,.07.1,5.54-4v-.2h0c0-1.5.13-3,.25-4.48v0a7.71,7.71,0,0,1-.15-1.58,16.27,16.27,0,0,1,.18-2.17l-.25,0-.09.67,0,.15v0h0l.1,0-.1,0h0l.1,0-.1,0,.11,0-.1-.06v0l.11,0-.1-.06.11.06v-.12c-.09,0-.1.05-.11.06l.11.06v0l.11-.05-.11-.07v.12l.11-.05-.11.05h.12v-.05l-.11.05h.12c0-.09.11-.93.16-1.36h0v-.31l-4.71-5.16V99.84h-.12l0,.12a1.86,1.86,0,1,0-1.08,0l0-.12H105v4.72l5,5.44v7.47l-5.59,4,.07.1.08-.1a1.87,1.87,0,1,0-1.13,3.36v-.25a1.62,1.62,0,1,1,1-2.91l.07.06,5.77-4.16V109.9l-5-5.44V99.75l-.09,0a1.62,1.62,0,1,1,.94,0l-.09,0v4.42l4.7,5.15v.2h.12l-.12,0-.1.84c0,.29-.06.5-.06.55V111l.11.07c.09,0,.1-.05.11-.06l0,0c0-.05,0-.28.12-.87l-.25,0a16.5,16.5,0,0,0-.18,2.21,8,8,0,0,0,.16,1.63l.12,0h-.12c-.11,1.49-.23,3-.25,4.5h0v.06l-5.51,4,0,.09a1.6,1.6,0,0,1,.09.53,1.63,1.63,0,0,1-1.62,1.62Z"/><path class="cls-4" d="M107.49,127.4v.12a1.87,1.87,0,0,0,1.78-1.29l-.12,0v.12h1.15v-.13c0-.11,0-.21,0-.31v-.05h0V125h-1.14v.13l.12,0a1.87,1.87,0,0,0-1.77-1.28,1.87,1.87,0,1,0,0,3.74v-.25a1.62,1.62,0,1,1,0-3.24,1.62,1.62,0,0,1,1.54,1.11l0,.09h1v.61h0v.06c0,.11,0,.21,0,.31h.13v-.12h-1.12l0,.09a1.62,1.62,0,0,1-1.54,1.12Z"/><path class="cls-4" d="M78.17,118H78v4.72l5,5.44v7.47l-2.94,2.12v.08a8.54,8.54,0,0,1,.12,1.14v.23l4.06-2.93v-8.6l-5-5.44V118h-.12l0,.12a1.87,1.87,0,1,0-1.08,0l0-.12h0l0-.12a1.62,1.62,0,1,1,.94,0l-.09,0v4.42l5,5.44v8.38l-3.77,2.72.07.1h.12a8.79,8.79,0,0,0-.13-1.17l-.12,0,.07.1,3-2.15V128l-5-5.44v-4.71l-.09,0Z"/><path class="cls-4" d="M96.4,108.06v-.12h0a1.87,1.87,0,0,0-1.79,1.33l.12,0v-.13H83v11.9l7.56,6.62v4.54h.13l0-.12a1.87,1.87,0,1,0,1.08,0l0,.12h.12v-5.11l-7.56-6.62V110.43H94.73v-.12l-.12,0a1.87,1.87,0,1,0,1.79-2.41v.25a1.62,1.62,0,1,1-1.55,2.09l0-.09H84v10.44l7.56,6.62v5.09l.09,0a1.61,1.61,0,1,1-.94,0l.09,0v-4.75L83.26,121V109.42H94.82l0-.09a1.62,1.62,0,0,1,1.55-1.15h0Z"/><path class="cls-4" d="M100.33,86.43h-.12a1.87,1.87,0,0,0,1.33,1.79l0-.12h-.12V99.46l-4.1,3,.07.1.07-.11a1.85,1.85,0,0,0-1-.29,1.88,1.88,0,1,0,1.71,1.11l-.11.05.07.1,4.55-3.32v-12h-.12l0,.12a1.87,1.87,0,0,0-.54-3.66h0a1.87,1.87,0,0,0-1.87,1.87h.25a1.62,1.62,0,0,1,1.62-1.62h0a1.62,1.62,0,0,1,.47,3.17l-.09,0v12l-4.53,3.31,0,.09a1.6,1.6,0,0,1,.14.66,1.62,1.62,0,0,1-2.77,1.15,1.61,1.61,0,0,1-.48-1.15,1.63,1.63,0,0,1,1.62-1.62,1.6,1.6,0,0,1,.86.25l.07,0,4.27-3.12V88l-.09,0a1.62,1.62,0,0,1-1.15-1.55Z"/><path class="cls-4" d="M73,111.82h-.12v14.66l.78.81h0a6.54,6.54,0,0,1,3.93,3.25l.08.15.12-.13a1.87,1.87,0,0,0-2.21-2.94l.06.11.09-.09L74.11,126V112.33L89.94,98.15V92.69h-.12l0,.12a1.87,1.87,0,1,0-1.08,0l0-.12h-.12v4.9L72.85,111.77v.06H73l.08.09L88.93,97.7v-5.1l-.09,0a1.62,1.62,0,1,1,.94,0l-.09,0V98L73.86,112.22v13.86l1.75,1.82.08,0a1.62,1.62,0,0,1,1.92,2.55l.09.09.11-.06a6.79,6.79,0,0,0-4.08-3.37l0,.12.09-.09-.68-.71V111.82H73l.08.09Z"/><path class="cls-4" d="M73.6,106.47v.12a1.87,1.87,0,0,0,1.87-1.87,1.89,1.89,0,0,0-.07-.5l-.12,0,.08.09L83.53,97l-.08-.09-.06.11a1.88,1.88,0,1,0-.72-.8l.11-.05-.08-.09-2.47,2.22L78.89,97,78.8,97l.11.06a1.85,1.85,0,0,0,.22-.88,1.87,1.87,0,1,0-1.87,1.87,1.85,1.85,0,0,0,.88-.22l-.06-.11-.09.09,1.29,1.29-4.64,4.17.08.09.08-.1a1.86,1.86,0,0,0-1.21-.45h0a1.87,1.87,0,1,0,0,3.74v-.25a1.62,1.62,0,1,1,0-3.24h0a1.6,1.6,0,0,1,1,.39l.08.07,4.92-4.42L78.1,97.6l-.08,0a1.6,1.6,0,0,1-.76.19,1.62,1.62,0,1,1,1.62-1.62,1.6,1.6,0,0,1-.19.77l0,.08,1.57,1.57,2.71-2.44,0-.08a1.63,1.63,0,1,1,.63.7l-.08,0-8.29,7.46,0,.07a1.65,1.65,0,0,1,.06.43,1.62,1.62,0,0,1-1.62,1.62Z"/><path class="cls-4" d="M86,148.37v.12a1.87,1.87,0,0,0,1.71-2.63l-.11.05.08.09,9.9-8.56H101l0-.06a6.76,6.76,0,0,1,.81-1l.21-.21H97.11l-10.26,8.87.08.09L87,145a1.87,1.87,0,1,0-1,3.45v-.25a1.62,1.62,0,1,1,.87-3l.08,0,10.26-8.87h4.53v-.12l-.09-.09a7,7,0,0,0-.84,1l.1.07v-.12H97.49l-10,8.68,0,.08A1.62,1.62,0,0,1,86,148.25Z"/><path class="cls-4" d="M96.77,81.27h.12V72.63h-.13c-.21,0-.41,0-.62,0l-.36,0h-.13v8.63h.13l0-.12a1.8,1.8,0,1,0,2.33,1.71,1.8,1.8,0,0,0-1.26-1.71l0,.12h0l0,.12a1.54,1.54,0,0,1-.46,3,1.55,1.55,0,0,1-.46-3l.09,0V72.77h-.12v.12l.37,0c.22,0,.43,0,.64,0v-.12h-.12v8.6l.09,0Z"/><path class="cls-4" d="M91.09,81.45h.12v-8.7h-.14a8.71,8.71,0,0,1-.9,0v0H90v8.65h.13l0-.12a1.8,1.8,0,1,0,1.07,0l0,.12h0l0,.12a1.54,1.54,0,0,1-.46,3,1.55,1.55,0,0,1-.46-3l.09,0V72.94H90.1v.12h.09a9,9,0,0,0,.92,0V72.9H91v8.65l.09,0Z"/></svg>