<?xml version="1.0" encoding="iso-8859-1"?>
<!-- Generator: Adobe Illustrator 16.0.0, SVG Export Plug-In . SVG Version: 6.00 Build 0)  -->
<!DOCTYPE svg PUBLIC "-//W3C//DTD SVG 1.1//EN" "http://www.w3.org/Graphics/SVG/1.1/DTD/svg11.dtd">
<svg version="1.1" id="Layer_1" xmlns="http://www.w3.org/2000/svg" xmlns:xlink="http://www.w3.org/1999/xlink" x="0px" y="0px"
	 width="116.999px" height="41.003px" viewBox="12.19 5 116.999 41.003" style="enable-background:new 12.19 5 116.999 41.003;"
	 xml:space="preserve">
<g>
	<g>
		<path style="fill:#FFFFFF;" d="M51.52,43.115c0.006,0.408-0.078,0.697-0.252,0.867c-0.175,0.172-0.477,0.254-0.908,0.248h-2.719
			c-0.351-0.004-0.623-0.062-0.814-0.182c-0.193-0.115-0.307-0.268-0.345-0.455l-0.019-0.057v-0.425v-7.51h-1.709v7.724h-0.003
			c0.005,0.869,0.252,1.531,0.745,1.986c0.494,0.455,1.208,0.686,2.143,0.688h2.701c0.934-0.002,1.648-0.231,2.142-0.688
			s0.741-1.117,0.745-1.986v-7.721H51.52V43.115z M39.549,7.403c-0.553-0.856-1.193-1.472-1.918-1.848
			c-0.725-0.378-1.583-0.562-2.573-0.554h-4.366c-1.177,0.003-2.127,0.176-2.847,0.521c-0.721,0.345-1.255,0.845-1.601,1.501
			c-0.367-0.656-0.911-1.156-1.633-1.501c-0.72-0.346-1.658-0.519-2.816-0.521H17.43c-1.008-0.008-1.871,0.176-2.588,0.554
			c-0.718,0.376-1.351,0.991-1.902,1.848c-0.267,0.389-0.46,0.823-0.577,1.301c-0.113,0.476-0.172,1.067-0.17,1.772v17.271h5.696
			l-0.083-15.249c0.002-0.063,0.009-0.127,0.021-0.189c0.012-0.062,0.019-0.127,0.02-0.19c0.104-0.46,0.282-0.801,0.541-1.021
			c0.258-0.219,0.605-0.327,1.039-0.326h2.494c0.083,0,0.167,0,0.25,0c0.432,0.101,0.742,0.269,0.93,0.501
			c0.188,0.232,0.28,0.558,0.275,0.975v15.5h5.697v-15.5c-0.004-0.354,0.064-0.637,0.201-0.849c0.139-0.212,0.361-0.378,0.67-0.5
			c0.258-0.084,0.451-0.127,0.583-0.127h2.494c0.534-0.006,0.922,0.135,1.165,0.423c0.145,0.143,0.25,0.319,0.317,0.526
			c0.066,0.206,0.099,0.466,0.099,0.778l-0.042,15.248h5.696l0.041-17.271c0-0.704-0.062-1.296-0.188-1.773
			S39.799,7.792,39.549,7.403z M42.755,17.047h11.352v-5.561H42.755V17.047z M38.063,46.001h1.708v-13.86h-1.708V46.001z
			 M12.832,36.233c-0.398,0.412-0.6,0.992-0.605,1.74v1.329c0,0.164,0.024,0.335,0.071,0.513c0.048,0.177,0.119,0.354,0.214,0.526
			c0.212,0.373,0.5,0.652,0.864,0.841c0.364,0.185,0.842,0.274,1.435,0.274h2.32c0.357-0.002,0.616,0.074,0.774,0.23
			c0.158,0.154,0.236,0.406,0.233,0.75v0.791c0,0.221-0.023,0.396-0.071,0.531c-0.047,0.137-0.118,0.24-0.214,0.316
			c-0.067,0.065-0.137,0.114-0.209,0.146c-0.073,0.03-0.142,0.045-0.209,0.045h-0.418h-4.827l-0.001,1.735h5.475
			c0.185-0.002,0.391-0.043,0.618-0.123c0.227-0.08,0.45-0.194,0.674-0.34c0.104-0.086,0.203-0.18,0.293-0.279
			c0.091-0.1,0.171-0.211,0.236-0.336c0.124-0.194,0.215-0.396,0.273-0.604c0.059-0.209,0.088-0.404,0.088-0.59v-1.641
			c-0.007-0.576-0.184-1.076-0.53-1.498c-0.346-0.422-0.82-0.703-1.426-0.848c-0.077-0.013-0.156-0.021-0.238-0.027
			s-0.16-0.012-0.236-0.012h-2.549c-0.173-0.002-0.326-0.037-0.462-0.105c-0.135-0.068-0.239-0.162-0.317-0.279
			c-0.048-0.078-0.085-0.156-0.112-0.238c-0.025-0.08-0.04-0.154-0.04-0.225v-0.752c0-0.162,0.028-0.299,0.085-0.406
			c0.059-0.107,0.144-0.191,0.256-0.248c0.077-0.039,0.147-0.066,0.212-0.088c0.064-0.02,0.121-0.027,0.17-0.027h0.322h4.885v-1.729
			h-5.36C13.787,35.612,13.229,35.821,12.832,36.233z M59.918,32.141H58.21v13.86h1.708v-8.666h1.768v-1.729h-1.768V32.141z
			 M30.772,35.642c-0.065-0.012-0.133-0.02-0.202-0.025c-0.067-0.008-0.14-0.012-0.216-0.012h-3.138
			c-0.076,0-0.152,0.004-0.229,0.01c-0.076,0.004-0.152,0.01-0.229,0.01c-0.743,0.086-1.308,0.33-1.695,0.732
			c-0.387,0.4-0.582,0.959-0.583,1.673l0.001,5.411c0.011,0.738,0.261,1.346,0.748,1.818c0.487,0.479,1.15,0.725,1.987,0.74h3.138
			c0.273,0,0.517-0.023,0.729-0.076c0.213-0.049,0.414-0.127,0.601-0.23c0.499-0.285,0.858-0.605,1.079-0.969
			c0.221-0.359,0.329-0.789,0.325-1.283v-5.41c-0.002-0.678-0.198-1.219-0.589-1.621S31.534,35.751,30.772,35.642z M31.381,42.958
			c-0.002,0.443-0.107,0.771-0.314,0.986c-0.207,0.219-0.502,0.324-0.884,0.324h-2.757c-0.401,0-0.707-0.111-0.917-0.34
			c-0.211-0.227-0.318-0.575-0.319-1.045v-4.297c0.001-0.414,0.108-0.727,0.319-0.938c0.21-0.211,0.516-0.314,0.917-0.314h2.757
			c0.382,0,0.677,0.103,0.884,0.31c0.207,0.205,0.312,0.521,0.314,0.942V42.958z M106.535,9.34
			c-0.217-1.337-0.689-2.341-1.426-3.014c-0.734-0.672-1.812-1.085-3.232-1.241c-0.332-0.05-0.664-0.078-0.998-0.085H87.95v5.476
			h11.477c0.117,0,0.215,0,0.291,0c0.408,0.059,0.703,0.153,0.883,0.285c0.182,0.132,0.288,0.331,0.322,0.601v0.294
			c0.035,0.134,0.05,0.246,0.043,0.337v0.591h-7.609c-1.721,0.01-3.062,0.482-4.021,1.416c-0.963,0.932-1.451,2.258-1.467,3.975
			v4.631h-0.001c0.006,0.338,0.033,0.675,0.082,1.011c0.248,1.334,0.844,2.354,1.787,3.058c0.944,0.707,2.247,1.064,3.908,1.07
			h7.817c1.307-0.018,2.412-0.406,3.314-1.17s1.488-1.805,1.758-3.126c0.041-0.171,0.063-0.346,0.071-0.526
			c0.009-0.18,0.015-0.356,0.011-0.526V10.35c0.002-0.168-0.002-0.337-0.011-0.506C106.599,9.676,106.576,9.508,106.535,9.34z
			 M100.924,20.839c-0.008,0.337-0.118,0.631-0.334,0.885c-0.121,0.146-0.272,0.254-0.451,0.32c-0.18,0.067-0.403,0.102-0.669,0.101
			h-4.449c-0.076,0.007-0.174-0.008-0.291-0.043c-0.416-0.083-0.706-0.252-0.873-0.505c-0.103-0.132-0.177-0.268-0.223-0.41
			c-0.049-0.144-0.071-0.259-0.071-0.349v-1.433c0-0.091,0-0.203,0-0.336c0.04-0.376,0.128-0.646,0.267-0.817
			c0.139-0.169,0.34-0.262,0.607-0.278l0.25-0.042h0.333h4.407c0.204-0.002,0.366,0.012,0.489,0.037
			c0.121,0.025,0.221,0.068,0.302,0.132c0.319,0.149,0.521,0.292,0.602,0.425c0.083,0.136,0.116,0.372,0.104,0.712V20.839z
			 M65.248,46.001h1.708V35.604h-1.708V46.001z M123.536,5v14.953v0.59c-0.064,0.382-0.218,0.691-0.457,0.933
			c-0.24,0.238-0.561,0.392-0.957,0.457c-0.131,0.036-0.242,0.05-0.332,0.043h-4.033c-0.5,0.001-0.881-0.148-1.145-0.448
			c-0.261-0.299-0.393-0.753-0.396-1.363V5h-5.696v16.976c0,0.746,0.063,1.368,0.192,1.868s0.328,0.943,0.598,1.332
			c0.66,0.975,1.357,1.65,2.089,2.027c0.733,0.379,1.659,0.56,2.776,0.543h7.357v0.844v10.134c-0.06,0.356-0.189,0.649-0.395,0.879
			c-0.204,0.228-0.502,0.383-0.896,0.469c-0.09,0.033-0.201,0.05-0.332,0.041h-11.394l0.003,5.769h13.307
			c0.188,0,0.383-0.008,0.582-0.028c0.198-0.021,0.394-0.054,0.582-0.097c1.168-0.271,2.096-0.813,2.791-1.627
			c0.693-0.813,1.135-1.914,1.324-3.301c0.04-0.19,0.063-0.381,0.073-0.568c0.008-0.188,0.011-0.381,0.009-0.569V5H123.536z
			 M91.125,35.605h-2.701c-0.937,0.004-1.648,0.23-2.143,0.688c-0.492,0.457-0.74,1.119-0.746,1.988v7.721h1.708v-7.51
			c-0.008-0.41,0.077-0.699,0.254-0.871c0.178-0.17,0.484-0.252,0.926-0.246h2.719c0.344,0.002,0.613,0.062,0.81,0.181
			c0.195,0.116,0.312,0.271,0.352,0.454v0.06v0.425v7.51h1.71v-7.723c-0.005-0.869-0.253-1.531-0.746-1.988
			C92.775,35.837,92.06,35.609,91.125,35.605z M99.293,36.233c-0.398,0.412-0.6,0.992-0.604,1.74v1.329
			c0,0.164,0.022,0.335,0.071,0.513c0.047,0.177,0.119,0.354,0.213,0.526c0.212,0.373,0.5,0.652,0.863,0.841
			c0.365,0.185,0.843,0.274,1.435,0.274h2.321c0.357-0.002,0.615,0.074,0.775,0.23c0.156,0.154,0.233,0.406,0.23,0.75v0.791
			c0,0.221-0.021,0.396-0.071,0.531c-0.048,0.137-0.118,0.24-0.213,0.316c-0.065,0.065-0.139,0.114-0.21,0.146
			c-0.07,0.03-0.142,0.045-0.209,0.045h-0.419h-4.827V46h0.002v0.002h5.474c0.187-0.002,0.392-0.043,0.619-0.123
			s0.449-0.194,0.674-0.34c0.104-0.086,0.203-0.18,0.295-0.279c0.09-0.1,0.168-0.211,0.236-0.336
			c0.122-0.194,0.215-0.396,0.272-0.604c0.059-0.209,0.088-0.404,0.088-0.59v-1.641c-0.007-0.576-0.184-1.076-0.529-1.498
			c-0.347-0.422-0.819-0.703-1.427-0.848c-0.077-0.013-0.154-0.021-0.236-0.027c-0.082-0.008-0.16-0.012-0.238-0.012h-2.549
			c-0.172-0.002-0.326-0.037-0.461-0.105c-0.137-0.068-0.24-0.162-0.318-0.279c-0.049-0.078-0.086-0.156-0.113-0.238
			c-0.024-0.08-0.04-0.154-0.04-0.225v-0.752c0-0.162,0.028-0.299,0.085-0.406c0.058-0.107,0.144-0.191,0.259-0.248
			c0.074-0.039,0.146-0.066,0.211-0.088c0.064-0.02,0.12-0.027,0.168-0.027h0.322h4.885v-1.729h-5.359
			C100.248,35.612,99.691,35.821,99.293,36.233z M66.075,32.14c-0.311,0.002-0.579,0.123-0.811,0.361
			c-0.114,0.108-0.199,0.233-0.256,0.379c-0.056,0.145-0.086,0.295-0.086,0.451c0,0.164,0.029,0.318,0.086,0.465
			s0.143,0.271,0.256,0.381c0.24,0.24,0.515,0.361,0.826,0.363c0.311,0.002,0.586-0.113,0.826-0.344
			c0.227-0.254,0.341-0.541,0.339-0.861c-0.001-0.323-0.121-0.604-0.358-0.852C66.658,32.253,66.384,32.138,66.075,32.14z
			 M78.244,35.642c-0.066-0.012-0.135-0.02-0.203-0.025c-0.068-0.008-0.141-0.012-0.215-0.012h-3.14
			c-0.076,0-0.151,0.004-0.229,0.01c-0.077,0.004-0.151,0.01-0.229,0.01c-0.744,0.086-1.31,0.33-1.693,0.732
			c-0.389,0.4-0.582,0.959-0.586,1.673v5.411h0.004c0.01,0.738,0.26,1.346,0.748,1.818c0.485,0.479,1.149,0.725,1.985,0.74h3.14
			c0.271,0,0.516-0.023,0.729-0.076c0.213-0.049,0.413-0.127,0.602-0.23c0.499-0.285,0.856-0.605,1.078-0.969
			c0.223-0.359,0.329-0.789,0.325-1.283v-5.41c-0.001-0.678-0.197-1.219-0.588-1.621S79.006,35.751,78.244,35.642z M78.854,42.958
			c-0.002,0.443-0.106,0.771-0.313,0.986c-0.207,0.219-0.5,0.324-0.884,0.324h-2.759c-0.398,0-0.707-0.111-0.918-0.34
			c-0.209-0.227-0.314-0.575-0.316-1.045v-4.297c0.002-0.414,0.106-0.727,0.316-0.938c0.211-0.211,0.518-0.314,0.918-0.314h2.759
			c0.384,0,0.677,0.103,0.884,0.31c0.209,0.205,0.312,0.521,0.313,0.942V42.958z M79.323,20.248
			c-0.003,0.063-0.01,0.127-0.021,0.188c-0.014,0.064-0.021,0.128-0.021,0.19c-0.104,0.461-0.282,0.802-0.54,1.022
			c-0.26,0.219-0.604,0.327-1.039,0.326h-2.494c-0.082,0-0.166,0-0.25,0c-0.433-0.102-0.742-0.269-0.931-0.5
			c-0.188-0.233-0.28-0.558-0.274-0.975V5h-5.696v15.501c0.002,0.353-0.064,0.637-0.203,0.847c-0.138,0.213-0.36,0.378-0.671,0.501
			c-0.256,0.084-0.45,0.127-0.581,0.127h-2.495c-0.534,0.007-0.921-0.134-1.165-0.422c-0.144-0.144-0.25-0.32-0.316-0.527
			c-0.066-0.206-0.099-0.466-0.099-0.778L62.566,5H56.87l-0.042,17.27c0,0.705,0.062,1.296,0.187,1.774
			c0.125,0.478,0.312,0.911,0.562,1.301c0.553,0.856,1.191,1.472,1.917,1.849c0.725,0.377,1.583,0.562,2.572,0.554h4.365
			c1.177-0.004,2.127-0.177,2.848-0.521c0.722-0.344,1.256-0.844,1.602-1.5c0.368,0.656,0.911,1.156,1.632,1.5
			c0.72,0.346,1.659,0.52,2.817,0.521h4.363c1.01,0.008,1.871-0.177,2.589-0.554s1.351-0.991,1.902-1.849
			c0.269-0.39,0.459-0.823,0.576-1.301c0.121-0.479,0.177-1.069,0.175-1.774V5H79.24L79.323,20.248z"/>
	</g>
</g>
</svg>
