<svg id="Layer_1" data-name="Layer 1" xmlns="http://www.w3.org/2000/svg" viewBox="0 0 255.12 255.12"><defs><style>.cls-1{fill:#bcbcbc;}.cls-2{fill:#717171;}</style></defs><title>nseye</title><path class="cls-1" d="M35,102.57a1.75,1.75,0,1,0-1.75-1.75,1.73,1.73,0,0,0,.1.57l-6.06,4.37v8.49l5,5.44V124a1.75,1.75,0,0,0,.51,3.42h0a1.75,1.75,0,0,0,.5-3.42v-4.67l-5-5.44v-7.58l5.64-4.07A1.73,1.73,0,0,0,35,102.57Z"/><path class="cls-1" d="M30.82,96.4a1.74,1.74,0,0,0-1.66,1.2H28a8.68,8.68,0,0,1-.18,1.09h1.33a1.74,1.74,0,0,0,1.66,1.19,1.75,1.75,0,0,0,0-3.49Z"/><path class="cls-1" d="M60.14,105.83v-4.67l-5-5.44V88.15l4.5-3.24a8.71,8.71,0,0,1,.09-1.31l-5.6,4v8.49l5,5.44v4.28a1.75,1.75,0,1,0,1.74,2.91,1.75,1.75,0,0,0-.73-2.91Z"/><path class="cls-1" d="M41.91,115.75h0a1.75,1.75,0,0,0,1.67-1.24h11.6V102.79l-7.56-6.62v-4.6a1.75,1.75,0,1,0-1,0v5.06l7.56,6.62V113.5H43.58a1.75,1.75,0,1,0-1.67,2.25Z"/><path class="cls-1" d="M38,137.38a1.75,1.75,0,0,0-1.24-1.67V124.28l4.15-3a1.75,1.75,0,1,0-.67-.77l-4.5,3.29v11.94a1.75,1.75,0,0,0,.51,3.42h0A1.75,1.75,0,0,0,38,137.38Z"/><path class="cls-1" d="M49.5,131.12v-5L65.33,112V97.38l-1.94-2a1.75,1.75,0,0,0-1.52-2.6,1.75,1.75,0,1,0,.79,3.3l1.65,1.72v13.75L48.49,125.71v5.41a1.75,1.75,0,0,0,.51,3.42h0a1.75,1.75,0,0,0,.5-3.42Z"/><path class="cls-1" d="M64.71,117.34A1.74,1.74,0,0,0,63,119.55l-8.17,7.35a1.73,1.73,0,0,0-.9-.25,1.75,1.75,0,0,0,0,3.49h0a1.75,1.75,0,0,0,1.75-1.75,1.73,1.73,0,0,0-.17-.74l2.55-2.3,1.42,1.42A1.74,1.74,0,0,0,61,129.34h0a1.75,1.75,0,0,0,0-3.49,1.73,1.73,0,0,0-.82.21l-1.38-1.38,4.74-4.26a1.73,1.73,0,0,0,1.13.42h0a1.75,1.75,0,0,0,0-3.49Z"/><path class="cls-1" d="M52.3,75.43a1.74,1.74,0,0,0-1.59,2.46l-9.94,8.59H37.39a6.91,6.91,0,0,1-.82,1h4.58l10.22-8.84a1.75,1.75,0,1,0,.93-3.22Z"/><path class="cls-1" d="M41.53,142.54v9.06a7.56,7.56,0,0,1,1-.22v-8.84a1.67,1.67,0,1,0-2.17-1.59A1.68,1.68,0,0,0,41.53,142.54Z"/><path class="cls-1" d="M47.22,142.35v9.29a8.21,8.21,0,0,1,1-.09v-9.19a1.67,1.67,0,0,0-.5-3.26,1.67,1.67,0,0,0-.5,3.26Z"/><path class="cls-2" d="M198.18,108.89a10.73,10.73,0,0,1-.85,6.67h0a10.25,10.25,0,0,1-8.25,5.81v-1.92a8.12,8.12,0,0,0,1.86-.43h0a8.4,8.4,0,0,0,3.83-2.84,8.65,8.65,0,0,0,1.51-3.2h-2.12a7.1,7.1,0,0,1-.65,1.69c-3.31,5-11.8,2.77-11.8-3.75a6.47,6.47,0,1,1,12.92.41h1.89a8.77,8.77,0,0,0-.53-3.44l3.32-1.74a11.92,11.92,0,0,0-19.7-3.94l1.64,1a10,10,0,0,1,15.55,2.09l-1.67.88a8.55,8.55,0,0,0-1.23-1.5h0a8.2,8.2,0,0,0-12.34,1l-3.18-2a12.6,12.6,0,0,0-.5,13.72,12.13,12.13,0,0,0,7.48,5.58v-2a10.28,10.28,0,0,1-5.82-4.48,10.71,10.71,0,0,1-.53-10.23l1.6,1a8.67,8.67,0,0,0-.6,1.85h0a8.81,8.81,0,0,0,.36,4.81,8.41,8.41,0,0,0,6.87,5.49c0,2.35,0,1.48,0,3.83a11.94,11.94,0,0,0,10.73-5.1,12.35,12.35,0,0,0,1-1.62,12.66,12.66,0,0,0,1-8.57Z"/><path class="cls-2" d="M188.14,112.77l1.89,3.78,1.06-.55a5.69,5.69,0,0,0,2-2.06,6,6,0,0,0,.79-2.93v-.14h0a6.2,6.2,0,0,0-.05-.72h0v0h0a5.9,5.9,0,0,0-1.91-3.58l-.43-.38-.81,1.59.25.24a4.15,4.15,0,0,1,1.2,2.33h0a4.25,4.25,0,0,1-.31,2.35,4.09,4.09,0,0,1-.69,1.07l-.46.34-1-2a2,2,0,0,0,.45-1.28,2,2,0,0,0-1.94-2H188l-.88-1.77h0l-.24-.49-.38-.77-.19-.38-.38.17a5.72,5.72,0,0,0-2.6,2.24,6,6,0,0,0-.9,3.19,6,6,0,0,0,.42,2.19,5.88,5.88,0,0,0,1.28,2l.4.41.91-1.53-.23-.26a4.11,4.11,0,0,1-.8-1.32,4.18,4.18,0,0,1-.26-1.46,4.22,4.22,0,0,1,.48-1.95,4.06,4.06,0,0,1,1-1.23v0l0,0,.92,1.85a2,2,0,0,0-.35,1.15,2,2,0,0,0,1.92,2"/><path class="cls-2" d="M71.48,87.56l1.89,3.78,1.06-.55a5.7,5.7,0,0,0,2-2.06,6,6,0,0,0,.79-2.93v-.14h0a6.19,6.19,0,0,0-.05-.72h0v0h0a5.9,5.9,0,0,0-1.91-3.58l-.43-.38L74,82.53l.25.24a4.15,4.15,0,0,1,1.2,2.33h0a4.31,4.31,0,0,1,0,.64,4.25,4.25,0,0,1-.36,1.71,4.09,4.09,0,0,1-.69,1.07l-.46.34-1-2a2,2,0,0,0,.45-1.28,2,2,0,0,0-1.94-2h-.14l-.88-1.77h0l-.24-.49-.38-.77-.19-.38-.38.17a5.71,5.71,0,0,0-2.6,2.24,6,6,0,0,0-.9,3.19,6,6,0,0,0,.42,2.19,5.88,5.88,0,0,0,1.28,2l.4.41.91-1.53-.23-.26a4.12,4.12,0,0,1-.8-1.32,4.18,4.18,0,0,1-.26-1.46A4.23,4.23,0,0,1,68,83.8a4.06,4.06,0,0,1,1-1.23v0l0,0,.92,1.85a2,2,0,0,0-.35,1.15A2,2,0,0,0,71.48,87.56Z"/><path class="cls-1" d="M108.09,125a1.75,1.75,0,1,0,1.65,1.18l6.06-4.37v-8.49l-5-5.44v-4.28a1.75,1.75,0,0,0-.51-3.42h0a1.75,1.75,0,0,0-.5,3.42v4.67l5,5.44v7.58l-5.65,4.07A1.73,1.73,0,0,0,108.09,125Z"/><path class="cls-1" d="M100,134.8a1.75,1.75,0,1,0,2.35-1.64V120.29h3a1.74,1.74,0,1,0,0-1.09H93.51a1.75,1.75,0,1,0,0,1.09h7.71v12.84A1.75,1.75,0,0,0,100,134.8Z"/><path class="cls-1" d="M112.24,131.12a1.74,1.74,0,0,0,1.66-1.21H115a8.71,8.71,0,0,1,.18-1.09h-1.33a1.75,1.75,0,1,0-1.66,2.3Z"/><path class="cls-1" d="M82.92,121.69v4.67l5,5.44v7.58l-4.5,3.24a8.77,8.77,0,0,1-.09,1.31l5.6-4V131.4l-5-5.44v-4.28a1.75,1.75,0,1,0-1.74-2.9,1.75,1.75,0,0,0,.73,2.91Z"/><path class="cls-1" d="M101.15,111.77h0A1.75,1.75,0,0,0,99.48,113H87.88v11.72l7.56,6.62v4.6a1.75,1.75,0,1,0,1,0v-5.06l-7.56-6.62V114H99.48a1.75,1.75,0,1,0,1.67-2.25Z"/><path class="cls-1" d="M105.08,90.15a1.75,1.75,0,0,0,1.24,1.67v11.42l-4.15,3a1.73,1.73,0,0,0-.93-.27,1.75,1.75,0,1,0,1.59,1l4.5-3.29V91.82a1.75,1.75,0,0,0-.51-3.42h0A1.75,1.75,0,0,0,105.08,90.15Z"/><path class="cls-1" d="M93.55,96.4v5L77.72,115.54v14.61l1.94,2a1.75,1.75,0,0,0,1.52,2.6,1.75,1.75,0,0,0,0-3.49,1.73,1.73,0,0,0-.79.19l-1.65-1.72V116l15.83-14.18V96.4A1.75,1.75,0,0,0,94.06,93h0a1.75,1.75,0,0,0-.5,3.42Z"/><path class="cls-1" d="M78.35,110.18A1.74,1.74,0,0,0,80,108l8.17-7.35a1.75,1.75,0,1,0,.9-3.24h0a1.74,1.74,0,0,0-1.58,2.49L85,102.17l-1.42-1.42A1.74,1.74,0,0,0,82,98.18h0a1.75,1.75,0,1,0,.82,3.29l1.38,1.38-4.74,4.26a1.73,1.73,0,0,0-1.13-.42h0a1.75,1.75,0,0,0,0,3.49Z"/><path class="cls-1" d="M90.75,152.09a1.74,1.74,0,0,0,1.59-2.46l9.94-8.59h3.38a6.94,6.94,0,0,1,.82-1h-4.58l-10.22,8.84a1.75,1.75,0,1,0-.93,3.22Z"/><path class="cls-1" d="M101.52,85V75.92a7.56,7.56,0,0,1-1,.22V85a1.67,1.67,0,1,0,1,0Z"/><path class="cls-1" d="M95.84,85.17V75.88a8.31,8.31,0,0,1-1,.09v9.19a1.67,1.67,0,1,0,1,0Z"/><path class="cls-1" d="M198,127.51a1.75,1.75,0,1,0-2.8-.57l-3.47,3.29-2-2.07a1.75,1.75,0,1,0-.74.8l4.69,4.94a1.75,1.75,0,1,0,1.58-.92,1.72,1.72,0,0,0-.79.17l-2-2.12,3.44-3.27A1.75,1.75,0,0,0,198,127.51Z"/><path class="cls-1" d="M167.74,149.11a1.75,1.75,0,0,0-2-.36l-3.1-3.27L154,153.59a6.7,6.7,0,0,1,1,.45l7.51-7.13,2.41,2.53a1.75,1.75,0,1,0,2.78-.34Z"/><path class="cls-1" d="M173.82,154.47a7.59,7.59,0,0,1,1,.21l0-1.91,2.41-2.29a1.74,1.74,0,1,0-.7-.73l-2.71,2.57Z"/><path class="cls-1" d="M205.9,128.25l7.87,8.28-.92,5.06a1.73,1.73,0,0,0-.86.44,1.75,1.75,0,1,0,1.87-.35l1-5.48-8.22-8.66a1.75,1.75,0,0,0-2.72-2.13,1.75,1.75,0,0,0,2,2.82Z"/><path class="cls-1" d="M204.83,133.18l3.41,3.59-1.41,17.43.45-.33a7,7,0,0,1,.62-.42l1.38-17-3.72-3.92a1.75,1.75,0,0,0-2.72-2.13h0a1.75,1.75,0,0,0,2,2.83Z"/><path class="cls-1" d="M203.29,153.64a1.74,1.74,0,0,0-.3-2.76l.86-11a1.75,1.75,0,1,0-1.57-3h0a1.74,1.74,0,0,0,.57,2.89l-.27,3.42-2-.05a1.74,1.74,0,0,0-2.89-.8h0a1.75,1.75,0,1,0,2.41,2.53,1.72,1.72,0,0,0,.45-.72l1.95.05-.5,6.35a1.73,1.73,0,0,0-1.11.48h0a1.75,1.75,0,0,0,2.4,2.53Z"/><path class="cls-1" d="M174.23,138.16l16.66,17.55c1,0,1.95-.06,2.93,0l-.15-.2a1.67,1.67,0,0,0-1.95-.35l-16.77-17.66a1.75,1.75,0,0,0-2.71-2.14h0a1.75,1.75,0,0,0,2,2.82Z"/><path class="cls-1" d="M194.92,140.25a1.67,1.67,0,0,0-1.95-.35L179.2,125.4a6.54,6.54,0,0,1-.77.63l13.82,14.56a1.67,1.67,0,1,0,2.67-.33Z"/><path class="cls-1" d="M227.33,124.28a1.73,1.73,0,0,0,.83-.19l3.21,3.38,1.59.11,1.21-.93-2.34-.17-2.95-3.1a1.74,1.74,0,1,0-1.56.88Z"/><path class="cls-1" d="M217.47,93.16a1.75,1.75,0,0,0,2,.36l7.87,8.28-.92,5.06a1.73,1.73,0,0,0-.86.44h0a1.75,1.75,0,1,0,1.87-.35l1-5.48-8.22-8.66a1.75,1.75,0,1,0-2.78.34Z"/><path class="cls-1" d="M218.46,98.44l3.41,3.59-1.72,21.18,8,8.46.75-.68-7.74-8.15,1.72-21.18-3.72-3.92a1.75,1.75,0,0,0-2.72-2.13h0a1.75,1.75,0,0,0,2,2.82Z"/><path class="cls-1" d="M242.72,109l-10.46,9.94-2.41-2.53a1.75,1.75,0,0,0-.25-2.07,1.75,1.75,0,1,0-.48,2.76l3.1,3.27,11.18-10.62Z"/><path class="cls-1" d="M201.65,116.33a7,7,0,0,1-.64.8l20.58,21.67.64-.8Z"/><path class="cls-1" d="M179.1,94a1.75,1.75,0,1,0,2.8.57l3.47-3.29,2,2.07a1.75,1.75,0,1,0,.74-.8l-4.69-4.94a1.75,1.75,0,1,0-.79.75l2,2.12-3.44,3.27A1.75,1.75,0,0,0,179.1,94Z"/><path class="cls-1" d="M220.87,68.63l-6.26,5.95L212.2,72a1.75,1.75,0,1,0-.73.7l3.1,3.27,7.21-6.85A6.56,6.56,0,0,1,220.87,68.63Z"/><path class="cls-1" d="M171.26,93.23l-7.87-8.28.92-5.06a1.73,1.73,0,0,0,.86-.44,1.75,1.75,0,1,0-1.87.35l-1,5.48,8.22,8.66a1.75,1.75,0,0,0,2.72,2.13,1.75,1.75,0,0,0-2-2.83Z"/><path class="cls-1" d="M172.32,88.31l-3.41-3.59,1.41-17.43-.45.33a6.88,6.88,0,0,1-.62.42l-1.38,17L171.59,89a1.75,1.75,0,0,0,2.72,2.13h0a1.75,1.75,0,0,0-2-2.83Z"/><path class="cls-1" d="M198.92,87.38,182.16,69.72a1.67,1.67,0,1,0-2.67.33,1.67,1.67,0,0,0,1.95.35L198.2,88.06a1.75,1.75,0,0,0,2.71,2.14h0a1.75,1.75,0,0,0-2-2.82Z"/><path class="cls-1" d="M205,83.68a1.75,1.75,0,0,0-2.06-.35l-14.8-15.58-.56,0c-.28,0-.55,0-.82,0L202.2,84a1.75,1.75,0,0,0,2.71,2.14h0A1.75,1.75,0,0,0,205,83.68Z"/><path class="cls-1" d="M149.82,97.2a1.73,1.73,0,0,0-.83.19L145.78,94l-1.59-.11-1.21.93,2.34.17,2.95,3.1a1.74,1.74,0,1,0,1.56-.88Z"/><path class="cls-1" d="M159.68,128.33a1.75,1.75,0,0,0-2-.36l-7.87-8.28.92-5.06a1.73,1.73,0,0,0,.86-.44h0a1.75,1.75,0,1,0-1.87.35l-1,5.48,8.22,8.66a1.75,1.75,0,0,0,2.72,2.13h0A1.75,1.75,0,0,0,159.68,128.33Z"/><path class="cls-1" d="M158.69,123l-3.41-3.59L157,98.27l-8-8.46-.75.68L156,98.64l-1.72,21.18,3.72,3.92a1.75,1.75,0,0,0,2.72,2.13h0a1.75,1.75,0,0,0-2-2.83Z"/><path class="cls-1" d="M160.23,102.58a1.75,1.75,0,0,0-.06,2.47,1.76,1.76,0,0,0,.37.29l-.86,11a1.73,1.73,0,0,0-.83.44,1.75,1.75,0,0,0,2.4,2.53h0a1.75,1.75,0,0,0,.06-2.47,1.73,1.73,0,0,0-.63-.42l.27-3.43,2,.05a1.75,1.75,0,1,0,0-1l-1.95-.05.5-6.35a1.73,1.73,0,0,0,1.11-.48h0a1.75,1.75,0,0,0-2.4-2.53Zm2.18,2.29Z"/><path class="cls-1" d="M134.43,112.51l10.46-9.94,2.41,2.53a1.75,1.75,0,0,0,.25,2.07,1.75,1.75,0,1,0,.48-2.76l-3.1-3.27-11.18,10.62Z"/><path class="cls-1" d="M207,75.65l-.54-.56.19-7.38a7.55,7.55,0,0,1-1,.24l-.19,7.54.82.87A1.75,1.75,0,0,0,209,78.47h0a1.75,1.75,0,0,0-2-2.83Z"/><path class="cls-1" d="M173.1,110.21a1.75,1.75,0,0,0,1.42,2.69h0c0-.27-.07-.54-.08-.82a8.63,8.63,0,0,1-.32-2.6,1.7,1.7,0,0,0-.29.08l-21.74-22.9-.7.73Z"/><path class="cls-2" d="M112.17,74.6,84.51,74h-.07a2.75,2.75,0,0,0-2,.86,2.84,2.84,0,0,0-.25,3.58c.15.21.27.44.4.66l-.64.31a11.88,11.88,0,0,0-17.4-3.6l-.75-.48A13,13,0,0,1,68,73.21a2.49,2.49,0,0,0,1.84-2.36L70,65.52v-.07a4.4,4.4,0,0,0-1.39-3.24A4.56,4.56,0,0,0,65.46,61a4.41,4.41,0,0,0-3,1.16L28.42,92.79a4.47,4.47,0,0,0-1.48,3.26l-.77,51.57v.07a4.48,4.48,0,0,0,4.42,4.47l33.61.41h.06a4.47,4.47,0,0,0,4.47-4.41l.71-47.58h0v0a2.49,2.49,0,0,0-1.78-2.37,13,13,0,0,1-4.43-2.37l.57-.62h0l1.29-1.37A10.47,10.47,0,0,1,63,91.37a10.71,10.71,0,0,1-.53-10.23l1.6,1a8.63,8.63,0,0,0-.6,1.85h0a8.81,8.81,0,0,0,.36,4.81,8.42,8.42,0,0,0,6.87,5.49c0,2.35,0,1.48,0,3.83A11.94,11.94,0,0,0,81.41,93a12.35,12.35,0,0,0,1-1.62,12.62,12.62,0,0,0,1.25-6.78l.73-.39A12.89,12.89,0,0,1,75.74,98a2.83,2.83,0,0,0-1.92,2.6L72.64,161.4v.1A4.7,4.7,0,0,0,74.13,165a4.87,4.87,0,0,0,3.32,1.32A4.71,4.71,0,0,0,80.61,165l33.63-30.16a4.78,4.78,0,0,0,1.59-3.47l1-51.95h0v-.09A4.78,4.78,0,0,0,112.17,74.6Zm3.15,4.84h0l-1,51.95a3.26,3.26,0,0,1-1.08,2.37L79.6,163.92a3.18,3.18,0,0,1-2.15.84,3.36,3.36,0,0,1-2.28-.91,3.17,3.17,0,0,1-1-2.36v-.07l1.17-60.79a1.31,1.31,0,0,1,.9-1.2,14.47,14.47,0,0,0,9.15-17.78l-3.74,2.06a10.73,10.73,0,0,1-.85,6.67h0a10.25,10.25,0,0,1-8.25,5.81V94.29a8.12,8.12,0,0,0,1.86-.43h0A8.4,8.4,0,0,0,78.23,91a8.63,8.63,0,0,0,1.51-3.2H77.61A7.1,7.1,0,0,1,77,89.52c-3.31,5-11.8,2.77-11.8-3.75a6.47,6.47,0,1,1,12.92.41H80a8.77,8.77,0,0,0-.53-3.44h0c-.16-.31-.28-.65-.44-1l-.2-.41a.43.43,0,0,1-.17-.28l0,0h0a8.57,8.57,0,0,0-1.23-1.5h0a8.2,8.2,0,0,0-12.34,1l-3.18-2a12.6,12.6,0,0,0-.5,13.72,12.4,12.4,0,0,0,1.21,1.66L60.91,95.7a14.5,14.5,0,0,0,6.31,3.93,1,1,0,0,1,.7.92v0h0l-.71,47.58a3,3,0,0,1-3,2.91h0l-33.61-.41a3,3,0,0,1-2.92-3v0l.77-51.57a3,3,0,0,1,1-2.16L63.51,63.25a2.89,2.89,0,0,1,2-.77,3.05,3.05,0,0,1,2.07.82,2.87,2.87,0,0,1,.91,2.14v0l-.08,5.34a1,1,0,0,1-.72.92,14.51,14.51,0,0,0-6.65,4l3.72,2.4.05-.09a10,10,0,0,1,15.49,2.14h0l0,0a6.39,6.39,0,0,1,.78,1.52l0,.12,3.64-1.92a14.27,14.27,0,0,0-1.33-2.41,1.32,1.32,0,0,1,.11-1.67,1.23,1.23,0,0,1,.92-.39h0l27.65.65,0-.76,0,.76a3.26,3.26,0,0,1,3.19,3.26Z"/><path class="cls-2" d="M186.66,97.28l.08.75a13.27,13.27,0,0,1,1.42-.08,12.91,12.91,0,0,1,7,2l.52.33,26.76-27.66a3,3,0,0,0,.85-2.08,3.07,3.07,0,0,0-.81-2.07,3,3,0,0,0-2.15-1l-49.81-1.06h-.06a3,3,0,0,0-2.17.92L131,106a3,3,0,0,0,.08,4.27l26.32,25.34a3,3,0,0,0,4.26-.08l16.18-16.72-.35-.51a12.93,12.93,0,0,1-2.28-7.34q0-.58.05-1.17A13.06,13.06,0,0,1,186.74,98l-.08-.75-.08-.75a14.57,14.57,0,0,0-12.87,13.13q-.06.66-.06,1.3a14.45,14.45,0,0,0,2.54,8.2l.63-.43-.54-.53-15.75,16.27a1.5,1.5,0,0,1-2.12,0l-26.32-25.34a1.5,1.5,0,0,1,0-2.12l37.33-38.58a1.5,1.5,0,0,1,1.08-.46h0l49.81,1.06a1.45,1.45,0,0,1,1.06.47,1.56,1.56,0,0,1,.41,1,1.45,1.45,0,0,1-.43,1L195,98.84l.54.53.41-.64a14.44,14.44,0,0,0-7.8-2.28,14.76,14.76,0,0,0-1.58.09Z"/><path class="cls-2" d="M245.62,112.63l.53-.54L219.58,85.92a2.65,2.65,0,0,0-3.76,0l-17.06,17.47.33.51a12.92,12.92,0,0,1,2.07,7A13.58,13.58,0,0,1,201,113a13,13,0,0,1-10.59,10.74,13.4,13.4,0,0,1-2.25.19,12.91,12.91,0,0,1-6.75-1.91l-.52-.31L153,150.3a2.62,2.62,0,0,0-.76,1.84A2.7,2.7,0,0,0,153,154a2.62,2.62,0,0,0,1.89.85l51,1.18h.06a2.66,2.66,0,0,0,1.9-.8l38.42-39.35a2.66,2.66,0,0,0,0-3.75l-.53.54-.53.54a1.14,1.14,0,0,1,0,1.61l-38.42,39.35a1.14,1.14,0,0,1-.81.34h0l-51-1.18a1.1,1.1,0,0,1-.81-.36,1.19,1.19,0,0,1-.31-.79,1.1,1.1,0,0,1,.33-.78l27.47-28.13-.54-.53-.4.65a14.43,14.43,0,0,0,7.54,2.13,14.88,14.88,0,0,0,2.5-.21,14.51,14.51,0,0,0,11.84-12,14.93,14.93,0,0,0,.18-2.3,14.43,14.43,0,0,0-2.31-7.84l-.64.41.54.53L216.9,87a1.14,1.14,0,0,1,1.61,0l26.57,26.16Z"/><polygon class="cls-1" points="59.34 203.59 59.34 171.99 60.02 171.99 81.05 196.21 81.05 171.99 84.17 171.99 84.17 203.59 83.46 203.59 62.6 179.66 62.6 203.59 59.34 203.59"/><path class="cls-1" d="M88.59,197.71l2.69-1.61q2.84,5.22,6.55,5.22a6.27,6.27,0,0,0,3-.74,5.24,5.24,0,0,0,2.13-2,5.14,5.14,0,0,0,.73-2.64,5.36,5.36,0,0,0-1.07-3.11,25.75,25.75,0,0,0-5.41-5.07,27.63,27.63,0,0,1-4.92-4.32,7.89,7.89,0,0,1-1.68-4.83,7.34,7.34,0,0,1,1-3.76,7,7,0,0,1,2.78-2.67,8,8,0,0,1,3.9-1,8.31,8.31,0,0,1,4.18,1.11,14.34,14.34,0,0,1,4.11,4.07l-2.58,2a12.37,12.37,0,0,0-3-3.12,5.24,5.24,0,0,0-2.74-.75,4.33,4.33,0,0,0-3.12,1.16,3.8,3.8,0,0,0-1.21,2.86,4.87,4.87,0,0,0,.43,2,7.36,7.36,0,0,0,1.57,2.1q.62.6,4.08,3.16a23,23,0,0,1,5.63,5.39,8.69,8.69,0,0,1,1.52,4.75,8.05,8.05,0,0,1-2.61,6,8.77,8.77,0,0,1-6.35,2.53,9.31,9.31,0,0,1-5.22-1.54A14.07,14.07,0,0,1,88.59,197.71Z"/><polygon class="cls-1" points="113.78 171.99 131.89 171.99 131.89 175.09 116.94 175.09 116.94 184.99 131.76 184.99 131.76 188.08 116.94 188.08 116.94 200.5 131.76 200.5 131.76 203.59 113.78 203.59 113.78 171.99"/><polygon class="cls-1" points="134.86 171.99 138.49 171.99 146.57 185.02 154.53 171.99 158.18 171.99 148.17 188.49 148.17 203.59 145.06 203.59 145.06 188.49 134.86 171.99"/><polygon class="cls-1" points="163.4 171.99 181.51 171.99 181.51 175.09 166.56 175.09 166.56 184.99 181.38 184.99 181.38 188.08 166.56 188.08 166.56 200.5 181.38 200.5 181.38 203.59 163.4 203.59 163.4 171.99"/></svg>